{
	"patcher" : 	{
		"fileversion" : 1,
		"appversion" : 		{
			"major" : 7,
			"minor" : 0,
			"revision" : 5,
			"architecture" : "x86",
			"modernui" : 1
		}
,
		"rect" : [ 201.0, 254.0, 259.0, 191.0 ],
		"bglocked" : 0,
		"openinpresentation" : 0,
		"default_fontsize" : 12.0,
		"default_fontface" : 0,
		"default_fontname" : "Arial",
		"gridonopen" : 1,
		"gridsize" : [ 15.0, 15.0 ],
		"gridsnaponopen" : 1,
		"objectsnaponopen" : 1,
		"statusbarvisible" : 2,
		"toolbarvisible" : 1,
		"lefttoolbarpinned" : 0,
		"toptoolbarpinned" : 0,
		"righttoolbarpinned" : 0,
		"bottomtoolbarpinned" : 0,
		"toolbars_unpinned_last_save" : 0,
		"tallnewobj" : 0,
		"boxanimatetime" : 200,
		"enablehscroll" : 1,
		"enablevscroll" : 1,
		"devicewidth" : 0.0,
		"description" : "",
		"digest" : "",
		"tags" : "",
		"style" : "",
		"subpatcher_template" : "",
		"boxes" : [ 			{
				"box" : 				{
					"id" : "obj-8",
					"maxclass" : "comment",
					"numinlets" : 1,
					"numoutlets" : 0,
					"patching_rect" : [ 72.0, 70.0, 156.0, 20.0 ],
					"style" : "",
					"text" : "Make signal quieter for DIs"
				}

			}
, 			{
				"box" : 				{
					"id" : "obj-5",
					"maxclass" : "newobj",
					"numinlets" : 2,
					"numoutlets" : 1,
					"outlettype" : [ "signal" ],
					"patching_rect" : [ 21.0, 69.0, 49.0, 22.0 ],
					"style" : "",
					"text" : "*~ 0.25"
				}

			}
, 			{
				"box" : 				{
					"hidden" : 1,
					"id" : "obj-6",
					"maxclass" : "message",
					"numinlets" : 2,
					"numoutlets" : 1,
					"outlettype" : [ "" ],
					"patching_rect" : [ 162.0, 8.0, 47.0, 22.0 ],
					"style" : "",
					"text" : "open 1"
				}

			}
, 			{
				"box" : 				{
					"hidden" : 1,
					"id" : "obj-4",
					"maxclass" : "newobj",
					"numinlets" : 2,
					"numoutlets" : 1,
					"outlettype" : [ "bang" ],
					"patching_rect" : [ 87.0, 8.0, 69.0, 22.0 ],
					"style" : "",
					"text" : "delay 3000"
				}

			}
, 			{
				"box" : 				{
					"hidden" : 1,
					"id" : "obj-3",
					"maxclass" : "newobj",
					"numinlets" : 1,
					"numoutlets" : 1,
					"outlettype" : [ "bang" ],
					"patching_rect" : [ 21.0, 8.0, 60.0, 22.0 ],
					"style" : "",
					"text" : "loadbang"
				}

			}
, 			{
				"box" : 				{
					"id" : "obj-2",
					"maxclass" : "ezdac~",
					"numinlets" : 2,
					"numoutlets" : 0,
					"patching_rect" : [ 9.0, 105.0, 45.0, 45.0 ],
					"style" : ""
				}

			}
, 			{
				"box" : 				{
					"id" : "obj-1",
					"maxclass" : "newobj",
					"numinlets" : 1,
					"numoutlets" : 1,
					"outlettype" : [ "signal" ],
					"patching_rect" : [ 21.0, 37.0, 225.0, 22.0 ],
					"style" : "",
					"text" : "poly~ _thrOW-poly-abstraction 1 down 2"
				}

			}
 ],
		"lines" : [ 			{
				"patchline" : 				{
					"destination" : [ "obj-5", 0 ],
					"disabled" : 0,
					"hidden" : 0,
					"source" : [ "obj-1", 0 ]
				}

			}
, 			{
				"patchline" : 				{
					"destination" : [ "obj-4", 0 ],
					"disabled" : 0,
					"hidden" : 1,
					"source" : [ "obj-3", 0 ]
				}

			}
, 			{
				"patchline" : 				{
					"destination" : [ "obj-6", 0 ],
					"disabled" : 0,
					"hidden" : 1,
					"source" : [ "obj-4", 0 ]
				}

			}
, 			{
				"patchline" : 				{
					"destination" : [ "obj-2", 1 ],
					"disabled" : 0,
					"hidden" : 0,
					"source" : [ "obj-5", 0 ]
				}

			}
, 			{
				"patchline" : 				{
					"destination" : [ "obj-2", 0 ],
					"disabled" : 0,
					"hidden" : 0,
					"source" : [ "obj-5", 0 ]
				}

			}
, 			{
				"patchline" : 				{
					"destination" : [ "obj-1", 0 ],
					"disabled" : 0,
					"hidden" : 1,
					"source" : [ "obj-6", 0 ]
				}

			}
 ],
		"dependency_cache" : [ 			{
				"name" : "_thrOW-poly-abstraction.maxpat",
				"bootpath" : "~/Documents/DrBerdahl/thrOW",
				"type" : "JSON",
				"implicit" : 1
			}
, 			{
				"name" : "send-val-to-server-graphics.maxpat",
				"bootpath" : "~/Documents/DrBerdahl/thrOW",
				"type" : "JSON",
				"implicit" : 1
			}
, 			{
				"name" : "haptics-subpatch-c.maxpat",
				"bootpath" : "~/Documents/DrBerdahl/thrOW",
				"type" : "JSON",
				"implicit" : 1
			}
, 			{
				"name" : "FireFader~.maxpat",
				"bootpath" : "~/Documents/DrBerdahl/thrOW",
				"type" : "JSON",
				"implicit" : 1
			}
, 			{
				"name" : "grain-abstraction-onoff.maxpat",
				"bootpath" : "~/Documents/DrBerdahl/thrOW",
				"type" : "JSON",
				"implicit" : 1
			}
, 			{
				"name" : "grain-abstraction.maxpat",
				"bootpath" : "~/Documents/DrBerdahl/thrOW",
				"type" : "JSON",
				"implicit" : 1
			}
, 			{
				"name" : "mass~.maxpat",
				"bootpath" : "~/Documents/DrBerdahl/thrOW",
				"type" : "JSON",
				"implicit" : 1
			}
, 			{
				"name" : "touch~.maxpat",
				"bootpath" : "~/Documents/DrBerdahl/Open-Source-Haptics-For-Artists/Software/Max/palette/CA",
				"type" : "JSON",
				"implicit" : 1
			}
, 			{
				"name" : "grnd~.maxpat",
				"bootpath" : "~/Documents/DrBerdahl/Open-Source-Haptics-For-Artists/Software/Max/palette/CA",
				"type" : "JSON",
				"implicit" : 1
			}
, 			{
				"name" : "link~.maxpat",
				"bootpath" : "~/Documents/DrBerdahl/Open-Source-Haptics-For-Artists/Software/Max/palette/CA",
				"type" : "JSON",
				"implicit" : 1
			}
, 			{
				"name" : "onlychangetoggle.maxpat",
				"bootpath" : "~/Documents/DrBerdahl/thrOW",
				"type" : "JSON",
				"implicit" : 1
			}
, 			{
				"name" : "send-val-to-server.maxpat",
				"bootpath" : "~/Documents/DrBerdahl/thrOW",
				"type" : "JSON",
				"implicit" : 1
			}
, 			{
				"name" : "outputprocessing~.maxpat",
				"bootpath" : "~/Documents/DrBerdahl/thrOW",
				"type" : "JSON",
				"implicit" : 1
			}
, 			{
				"name" : "send-val-to-server-graphicsB.maxpat",
				"bootpath" : "~/Documents/DrBerdahl/thrOW",
				"type" : "JSON",
				"implicit" : 1
			}
, 			{
				"name" : "haptics-subpatch-d.maxpat",
				"bootpath" : "~/Documents/DrBerdahl/thrOW",
				"type" : "JSON",
				"implicit" : 1
			}
, 			{
				"name" : "grain-abstraction-onoffB.maxpat",
				"bootpath" : "~/Documents/DrBerdahl/thrOW",
				"type" : "JSON",
				"implicit" : 1
			}
, 			{
				"name" : "grain-abstractionB.maxpat",
				"bootpath" : "~/Documents/DrBerdahl/thrOW",
				"type" : "JSON",
				"implicit" : 1
			}
, 			{
				"name" : "mxj.mxo",
				"type" : "iLaX"
			}
, 			{
				"name" : "tap.verb~.mxo",
				"type" : "iLaX"
			}
 ],
		"embedsnapshot" : 0
	}

}
